<?xml version="1.0" encoding="UTF-8"?>
<svg xmlns="http://www.w3.org/2000/svg" version="1.1" xmlns:xlink="http://www.w3.org/1999/xlink" viewBox="0 0 595.28 841.89">
  <defs>
    <style>
      .cls-1 {
        fill: gray;
      }

      .cls-2 {
        fill: #494949;
      }

      .cls-3 {
        fill: #fff;
      }

      .cls-4, .cls-5, .cls-6, .cls-7 {
        fill: none;
      }

      .cls-5 {
        stroke-dasharray: 2.99 2.99;
      }

      .cls-5, .cls-6 {
        stroke-width: .4px;
      }

      .cls-5, .cls-6, .cls-7 {
        stroke-miterlimit: 10;
      }

      .cls-5, .cls-7 {
        stroke: #000;
      }

      .cls-8 {
        fill: #5583f9;
      }

      .cls-6 {
        stroke: gray;
      }

      .cls-9 {
        fill: #9f9f9f;
      }

      .cls-7 {
        stroke-linecap: square;
        stroke-width: .44px;
      }

      .cls-10 {
        clip-path: url(#clippath);
      }

      .cls-11 {
        fill: #bfbfbf;
      }
    </style>
    <clipPath id="clippath">
      <rect class="cls-4" x="452.72" y="715.43" width="96.59" height="84.82"/>
    </clipPath>
  </defs>
  <!-- Generator: Adobe Illustrator 28.7.1, SVG Export Plug-In . SVG Version: 1.2.0 Build 142)  -->
  <g>
    <g>
      <g class="cls-10">
        <rect class="cls-8" x="460.62" y="722.16" width="80.78" height="57.89" rx="4.04" ry="4.04"/>
        <path class="cls-8" d="M461.84,785.12c.5-.64,1.28-1.02,2.11-1.02h74.13c.83,0,1.6.38,2.11,1.02l8.53,10.77c1.4,1.76.14,4.36-2.11,4.36h-91.19c-2.25,0-3.51-2.6-2.11-4.36l8.53-10.77Z"/>
        <polygon class="cls-3" points="490.92 792.17 511.11 792.17 514.48 796.21 487.55 796.21 490.92 792.17"/>
        <polygon class="cls-8" points="464.66 715.43 501.02 719.85 501.02 778.71 464.66 774.29 464.66 715.43"/>
        <polygon class="cls-3" points="467.36 718.12 501.02 722.16 501.02 776.02 467.36 771.98 467.36 718.12"/>
        <polygon class="cls-8" points="537.37 715.43 501.02 719.85 501.02 778.71 537.37 774.29 537.37 715.43"/>
        <polygon class="cls-3" points="534.67 718.12 501.02 722.16 501.02 776.02 534.67 771.98 534.67 718.12"/>
        <path class="cls-2" d="M505.32,739.02c.65-1.69.97-2.97.97-3.82,0-1.08-.54-1.62-1.62-1.62-.1,0-.16-.1-.16-.32s.06-.32.16-.32c.32,0,.7.04,1.13.11.43.03,1.23.06,2.37.06.65,0,1.4-.04,2.26-.11l2.1-.06c.08,0,.11.11.11.32s-.04.32-.11.32c-1.22,0-2.29.45-3.23,1.35-.93.9-1.78,2.34-2.53,4.31l-3.72,9.63-.97-1.39,3.23-8.46ZM526.49,732.93c.07,0,.1.11.1.32s-.03.32-.1.32c-1.3,0-2.48.48-3.56,1.46-1.08.97-1.98,2.36-2.69,4.2l-10.45,27.3c-.04.15-.23.22-.6.22s-.55-.07-.59-.22l-13.63-29.14c-.61-1.29-1.21-2.24-1.78-2.85-.58-.64-1.24-.97-1.99-.97-.1,0-.16-.1-.16-.32s.06-.32.16-.32l1.3.06c.79.07,1.58.11,2.36.11,1.69,0,3.18-.04,4.48-.11.36-.03.83-.06,1.4-.06.1,0,.16.11.16.32s-.06.32-.16.32c-.54,0-.94.07-1.18.22-.25.11-.38.34-.38.7,0,.29.1.74.32,1.35.25.61.55,1.31.91,2.1l10.88,23-2.15,3.34,9.53-24.88c.36-.94.54-1.82.54-2.64,0-1-.31-1.77-.92-2.31-.57-.57-1.39-.86-2.48-.86-.1,0-.16-.1-.16-.32s.06-.32.16-.32l2.37.06c1.29.07,2.46.11,3.5.11.71,0,1.54-.04,2.48-.11l2.32-.06ZM496.01,766.54c-.03.15-.24.22-.6.22s-.55-.07-.59-.22l-13.63-29.14c-.76-1.58-1.4-2.6-1.94-3.06-.5-.5-1.28-.76-2.31-.76-.1,0-.16-.1-.16-.32s.06-.32.16-.32l1.4.06c.86.07,1.76.11,2.69.11,2.05,0,3.86-.04,5.44-.11.5-.03,1.14-.06,1.89-.06.11,0,.16.11.16.32s-.05.32-.16.32c-.93,0-1.61.11-2.05.32-.43.18-.64.52-.64,1.02,0,.54.34,1.54,1.02,3.02l10.77,23-2.15,3.34,6.46-16.8.97,1.39-6.73,17.66Z"/>
      </g>
      <rect class="cls-1" x="183.99" y="39.56" width="274.12" height="21.07" rx="3.99" ry="3.99"/>
      <rect class="cls-1" x="201.86" y="76.36" width="238.37" height="21.07" rx="3.99" ry="3.99"/>
      <line class="cls-7" x1="120.56" y1="129.79" x2="545.56" y2="129.79"/>
      <line class="cls-7" x1="120.56" y1="241.37" x2="545.56" y2="241.37"/>
      <line class="cls-7" x1="120.56" y1="263.69" x2="545.56" y2="263.69"/>
      <line class="cls-7" x1="120.56" y1="286" x2="545.56" y2="286"/>
      <line class="cls-7" x1="120.56" y1="308.32" x2="545.56" y2="308.32"/>
      <line class="cls-7" x1="120.56" y1="330.64" x2="545.56" y2="330.64"/>
      <line class="cls-7" x1="120.56" y1="352.95" x2="545.56" y2="352.95"/>
      <line class="cls-7" x1="120.56" y1="129.79" x2="120.56" y2="352.95"/>
      <line class="cls-7" x1="148.12" y1="129.79" x2="148.12" y2="352.95"/>
      <line class="cls-7" x1="175.68" y1="263.69" x2="175.68" y2="352.95"/>
      <line class="cls-7" x1="203.24" y1="263.69" x2="203.24" y2="352.95"/>
      <line class="cls-7" x1="230.8" y1="241.37" x2="230.8" y2="352.95"/>
      <line class="cls-7" x1="258.36" y1="263.69" x2="258.36" y2="352.95"/>
      <line class="cls-7" x1="285.92" y1="241.37" x2="285.92" y2="352.95"/>
      <line class="cls-7" x1="313.48" y1="263.69" x2="313.48" y2="352.95"/>
      <line class="cls-7" x1="341.04" y1="263.69" x2="341.04" y2="352.95"/>
      <line class="cls-7" x1="368.6" y1="241.37" x2="368.6" y2="352.95"/>
      <line class="cls-7" x1="396.15" y1="263.69" x2="396.15" y2="352.95"/>
      <line class="cls-7" x1="545.56" y1="129.79" x2="545.56" y2="352.95"/>
      <line class="cls-5" x1="82.68" y1="800.25" x2="82.68" y2="41.77"/>
      <line class="cls-5" x1="29.05" y1="800.25" x2="29.05" y2="41.77"/>
      <rect class="cls-11" x="52.88" y="740.64" width="8.94" height="42.14" rx="3.99" ry="3.99"/>
      <line class="cls-6" x1="61.82" y1="732.22" x2="61.82" y2="664.8"/>
      <rect class="cls-11" x="52.88" y="588.95" width="8.94" height="42.14" rx="3.99" ry="3.99"/>
      <line class="cls-6" x1="61.82" y1="580.52" x2="61.82" y2="513.1"/>
      <rect class="cls-11" x="52.88" y="437.25" width="8.94" height="42.14" rx="3.99" ry="3.99"/>
      <line class="cls-6" x1="61.82" y1="428.82" x2="61.82" y2="361.4"/>
      <rect class="cls-11" x="52.88" y="285.56" width="8.94" height="42.14" rx="3.99" ry="3.99"/>
      <line class="cls-6" x1="61.82" y1="277.13" x2="61.82" y2="209.71"/>
      <rect class="cls-11" x="52.88" y="133.86" width="8.94" height="42.14" rx="3.99" ry="3.99"/>
      <line class="cls-6" x1="61.82" y1="125.43" x2="61.82" y2="58.01"/>
      <rect class="cls-11" x="129.87" y="143.44" width="8.94" height="84.28" rx="3.99" ry="3.99"/>
      <rect class="cls-11" x="124.8" y="246.56" width="19.07" height="12.64" rx="3.99" ry="3.99"/>
      <rect class="cls-11" x="124.8" y="268.47" width="19.07" height="12.64" rx="3.99" ry="3.99"/>
      <rect class="cls-11" x="124.8" y="290.39" width="19.07" height="12.64" rx="3.99" ry="3.99"/>
      <rect class="cls-11" x="124.8" y="312.3" width="19.07" height="12.64" rx="3.99" ry="3.99"/>
      <rect class="cls-11" x="124.8" y="335.05" width="19.07" height="12.64" rx="3.99" ry="3.99"/>
      <rect class="cls-11" x="159.66" y="246.56" width="59.59" height="12.64" rx="3.99" ry="3.99"/>
      <rect class="cls-11" x="237.5" y="246.56" width="41.71" height="12.64" rx="3.99" ry="3.99"/>
      <rect class="cls-11" x="297.46" y="246.56" width="59.59" height="12.64" rx="3.99" ry="3.99"/>
      <rect class="cls-11" x="409.4" y="246.56" width="95.35" height="12.64" rx="3.99" ry="3.99"/>
      <rect class="cls-11" x="152.36" y="268.47" width="19.07" height="12.64" rx="3.99" ry="3.99"/>
      <rect class="cls-11" x="179.92" y="268.47" width="19.07" height="12.64" rx="3.99" ry="3.99"/>
      <rect class="cls-11" x="207.82" y="268.47" width="19.07" height="12.64" rx="3.99" ry="3.99"/>
      <rect class="cls-11" x="235.04" y="268.47" width="19.07" height="12.64" rx="3.99" ry="3.99"/>
      <rect class="cls-11" x="262.6" y="268.47" width="19.07" height="12.64" rx="3.99" ry="3.99"/>
      <rect class="cls-11" x="290.16" y="268.47" width="19.07" height="12.64" rx="3.99" ry="3.99"/>
      <rect class="cls-11" x="318.07" y="268.47" width="19.07" height="12.64" rx="3.99" ry="3.99"/>
      <rect class="cls-11" x="345.28" y="268.47" width="19.07" height="12.64" rx="3.99" ry="3.99"/>
      <rect class="cls-11" x="372.84" y="268.47" width="19.07" height="12.64" rx="3.99" ry="3.99"/>
      <rect class="cls-11" x="160.15" y="137.69" width="369.47" height="12.64" rx="3.99" ry="3.99"/>
      <rect class="cls-11" x="160.15" y="158.76" width="119.18" height="12.64" rx="3.99" ry="3.99"/>
      <rect class="cls-11" x="160.15" y="179.83" width="268.16" height="12.64" rx="3.99" ry="3.99"/>
      <rect class="cls-11" x="160.15" y="200.9" width="232.41" height="12.64" rx="3.99" ry="3.99"/>
      <rect class="cls-11" x="160.15" y="221.96" width="160.9" height="12.64" rx="3.99" ry="3.99"/>
      <rect class="cls-9" x="124.39" y="378.87" width="89.39" height="15.17" rx="3.99" ry="3.99"/>
      <rect class="cls-11" x="142.27" y="408.37" width="387.35" height="12.64" rx="3.99" ry="3.99"/>
      <rect class="cls-11" x="142.27" y="433.65" width="387.35" height="12.64" rx="3.99" ry="3.99"/>
      <rect class="cls-11" x="142.27" y="458.94" width="387.35" height="12.64" rx="3.99" ry="3.99"/>
      <rect class="cls-11" x="142.27" y="484.22" width="101.31" height="12.64" rx="3.99" ry="3.99"/>
      <rect class="cls-11" x="142.27" y="585.35" width="387.35" height="12.64" rx="3.99" ry="3.99"/>
      <rect class="cls-11" x="142.27" y="610.63" width="387.35" height="12.64" rx="3.99" ry="3.99"/>
      <rect class="cls-11" x="142.27" y="635.92" width="196.65" height="12.64" rx="3.99" ry="3.99"/>
    </g>
  </g>
</svg>