<?xml version="1.0" encoding="UTF-8"?>
<svg xmlns="http://www.w3.org/2000/svg" xmlns:xlink="http://www.w3.org/1999/xlink" width="595.28" height="841.89" viewBox="0 0 595.28 841.89">
<defs>
<clipPath id="clip-0">
<path clip-rule="nonzero" d="M 463.261719 764 L 548.308594 764 L 548.308594 778.601562 L 463.261719 778.601562 Z M 463.261719 764 "/>
</clipPath>
<clipPath id="clip-1">
<path clip-rule="nonzero" d="M 473 703.914062 L 506 703.914062 L 506 760 L 473 760 Z M 473 703.914062 "/>
</clipPath>
<clipPath id="clip-2">
<path clip-rule="nonzero" d="M 505 703.914062 L 538 703.914062 L 538 760 L 505 760 Z M 505 703.914062 "/>
</clipPath>
</defs>
<path fill-rule="nonzero" fill="rgb(33.332825%, 51.371765%, 97.647095%)" fill-opacity="1" d="M 473.777344 709.839844 L 537.792969 709.839844 C 539.765625 709.839844 541.351562 711.429688 541.351562 713.398438 L 541.351562 757.261719 C 541.351562 759.230469 539.765625 760.816406 537.792969 760.816406 L 473.777344 760.816406 C 471.804688 760.816406 470.21875 759.230469 470.21875 757.261719 L 470.21875 713.398438 C 470.21875 711.429688 471.804688 709.839844 473.777344 709.839844 Z M 473.777344 709.839844 "/>
<g clip-path="url(#clip-0)">
<path fill-rule="nonzero" fill="rgb(33.332825%, 51.371765%, 97.647095%)" fill-opacity="1" d="M 471.289062 765.277344 C 471.730469 764.707031 472.417969 764.375 473.148438 764.375 L 538.425781 764.375 C 539.152344 764.375 539.832031 764.707031 540.285156 765.277344 L 547.792969 774.761719 C 549.027344 776.3125 547.914062 778.601562 545.933594 778.601562 L 465.636719 778.601562 C 463.65625 778.601562 462.542969 776.3125 463.78125 774.761719 Z M 471.289062 765.277344 "/>
</g>
<path fill-rule="nonzero" fill="rgb(100%, 100%, 100%)" fill-opacity="1" d="M 496.894531 771.488281 L 514.675781 771.488281 L 517.640625 775.042969 L 493.929688 775.042969 Z M 496.894531 771.488281 "/>
<g clip-path="url(#clip-1)">
<path fill-rule="nonzero" fill="rgb(33.332825%, 51.371765%, 97.647095%)" fill-opacity="1" d="M 473.777344 703.914062 L 505.785156 707.804688 L 505.785156 759.632812 L 473.777344 755.742188 Z M 473.777344 703.914062 "/>
</g>
<path fill-rule="nonzero" fill="rgb(100%, 100%, 100%)" fill-opacity="1" d="M 476.148438 706.285156 L 505.785156 709.839844 L 505.785156 757.261719 L 476.148438 753.707031 Z M 476.148438 706.285156 "/>
<g clip-path="url(#clip-2)">
<path fill-rule="nonzero" fill="rgb(33.332825%, 51.371765%, 97.647095%)" fill-opacity="1" d="M 537.792969 703.914062 L 505.785156 707.804688 L 505.785156 759.632812 L 537.792969 755.742188 Z M 537.792969 703.914062 "/>
</g>
<path fill-rule="nonzero" fill="rgb(100%, 100%, 100%)" fill-opacity="1" d="M 535.421875 706.285156 L 505.785156 709.839844 L 505.785156 757.261719 L 535.421875 753.707031 Z M 535.421875 706.285156 "/>
<path fill-rule="nonzero" fill="rgb(28.627014%, 28.627014%, 28.627014%)" fill-opacity="1" d="M 501.375 748.914062 C 501.347656 749.042969 501.167969 749.105469 500.851562 749.105469 C 500.535156 749.105469 500.363281 749.042969 500.332031 748.914062 L 488.335938 723.257812 C 487.667969 721.867188 487.101562 720.96875 486.625 720.558594 C 486.1875 720.117188 485.5 719.890625 484.585938 719.890625 C 484.496094 719.890625 484.445312 719.800781 484.445312 719.609375 C 484.445312 719.417969 484.496094 719.324219 484.585938 719.324219 L 485.824219 719.375 C 486.582031 719.4375 487.371094 719.46875 488.191406 719.46875 C 489.996094 719.46875 491.589844 719.4375 492.980469 719.375 C 493.425781 719.34375 493.980469 719.324219 494.640625 719.324219 C 494.738281 719.324219 494.78125 719.417969 494.78125 719.609375 C 494.78125 719.800781 494.738281 719.890625 494.640625 719.890625 C 493.820312 719.890625 493.21875 719.992188 492.835938 720.175781 C 492.460938 720.339844 492.269531 720.632812 492.269531 721.078125 C 492.269531 721.554688 492.570312 722.4375 493.171875 723.734375 L 502.65625 743.988281 L 500.761719 746.925781 L 506.445312 732.132812 L 507.304688 733.359375 Z M 528.21875 719.324219 C 528.28125 719.324219 528.308594 719.417969 528.308594 719.609375 C 528.308594 719.800781 528.28125 719.890625 528.21875 719.890625 C 527.074219 719.890625 526.03125 720.320312 525.085938 721.175781 C 524.136719 722.03125 523.347656 723.257812 522.714844 724.875 L 513.515625 748.914062 C 513.484375 749.042969 513.3125 749.105469 512.992188 749.105469 C 512.675781 749.105469 512.503906 749.042969 512.472656 748.914062 L 500.476562 723.257812 C 499.9375 722.121094 499.414062 721.28125 498.90625 720.746094 C 498.398438 720.175781 497.820312 719.890625 497.152344 719.890625 C 497.0625 719.890625 497.011719 719.800781 497.011719 719.609375 C 497.011719 719.417969 497.0625 719.324219 497.152344 719.324219 L 498.296875 719.375 C 498.988281 719.4375 499.683594 719.46875 500.375 719.46875 C 501.863281 719.46875 503.179688 719.4375 504.316406 719.375 C 504.632812 719.34375 505.046875 719.324219 505.550781 719.324219 C 505.644531 719.324219 505.691406 719.417969 505.691406 719.609375 C 505.691406 719.800781 505.644531 719.890625 505.550781 719.890625 C 505.074219 719.890625 504.722656 719.953125 504.507812 720.082031 C 504.285156 720.175781 504.175781 720.386719 504.175781 720.703125 C 504.175781 720.953125 504.265625 721.351562 504.457031 721.886719 C 504.679688 722.425781 504.945312 723.042969 505.261719 723.734375 L 514.84375 743.988281 L 512.949219 746.925781 L 521.339844 725.019531 C 521.652344 724.191406 521.816406 723.417969 521.816406 722.691406 C 521.816406 721.808594 521.542969 721.128906 521.003906 720.652344 C 520.5 720.148438 519.777344 719.890625 518.824219 719.890625 C 518.734375 719.890625 518.683594 719.800781 518.683594 719.609375 C 518.683594 719.417969 518.734375 719.324219 518.824219 719.324219 L 520.914062 719.375 C 522.046875 719.4375 523.082031 719.46875 523.996094 719.46875 C 524.625 719.46875 525.351562 719.4375 526.175781 719.375 Z M 509.578125 724.683594 C 510.152344 723.195312 510.433594 722.070312 510.433594 721.320312 C 510.433594 720.367188 509.960938 719.890625 509.007812 719.890625 C 508.917969 719.890625 508.867188 719.800781 508.867188 719.609375 C 508.867188 719.417969 508.917969 719.324219 509.007812 719.324219 C 509.292969 719.324219 509.625 719.355469 510.003906 719.417969 C 510.386719 719.449219 511.082031 719.46875 512.089844 719.46875 C 512.664062 719.46875 513.324219 719.4375 514.082031 719.375 L 515.929688 719.324219 C 515.996094 719.324219 516.03125 719.417969 516.03125 719.609375 C 516.03125 719.800781 515.996094 719.890625 515.929688 719.890625 C 514.855469 719.890625 513.910156 720.289062 513.089844 721.078125 C 512.269531 721.867188 511.519531 723.132812 510.859375 724.875 L 507.589844 733.359375 L 506.738281 732.132812 Z M 509.578125 724.683594 "/>
<path fill-rule="nonzero" fill="rgb(50%, 50%, 50%)" fill-opacity="1" d="M 183.988281 54.640625 L 183.988281 41.542969 C 183.988281 39.34375 185.769531 37.558594 187.972656 37.558594 L 454.121094 37.558594 C 456.324219 37.558594 458.109375 39.34375 458.109375 41.542969 L 458.109375 54.640625 C 458.109375 56.84375 456.324219 58.628906 454.121094 58.628906 L 187.972656 58.628906 C 185.769531 58.628906 183.988281 56.84375 183.988281 54.640625 Z M 183.988281 54.640625 "/>
<path fill-rule="nonzero" fill="rgb(50%, 50%, 50%)" fill-opacity="1" d="M 201.863281 96.78125 L 201.863281 83.679688 C 201.863281 81.480469 203.648438 79.695312 205.847656 79.695312 L 436.246094 79.695312 C 438.445312 79.695312 440.230469 81.480469 440.230469 83.679688 L 440.230469 96.78125 C 440.230469 98.980469 438.445312 100.765625 436.246094 100.765625 L 205.847656 100.765625 C 203.648438 100.765625 201.863281 98.980469 201.863281 96.78125 Z M 201.863281 96.78125 "/>
<path fill="none" stroke-width="0.43834" stroke-linecap="square" stroke-linejoin="miter" stroke="rgb(0%, 0%, 0%)" stroke-opacity="1" stroke-miterlimit="10" d="M -425.002406 114.074844 L 0.0015 114.074844 " transform="matrix(1, 0, 0, -1, 545.561, 243.86)"/>
<path fill="none" stroke-width="0.43834" stroke-linecap="square" stroke-linejoin="miter" stroke="rgb(0%, 0%, 0%)" stroke-opacity="1" stroke-miterlimit="10" d="M -425.002406 2.488906 L 0.0015 2.488906 " transform="matrix(1, 0, 0, -1, 545.561, 243.86)"/>
<path fill="none" stroke-width="0.43834" stroke-linecap="square" stroke-linejoin="miter" stroke="rgb(0%, 0%, 0%)" stroke-opacity="1" stroke-miterlimit="10" d="M -425.002406 -19.8275 L 0.0015 -19.8275 " transform="matrix(1, 0, 0, -1, 545.561, 243.86)"/>
<path fill="none" stroke-width="0.43834" stroke-linecap="square" stroke-linejoin="miter" stroke="rgb(0%, 0%, 0%)" stroke-opacity="1" stroke-miterlimit="10" d="M -425.002406 -42.143906 L 0.0015 -42.143906 " transform="matrix(1, 0, 0, -1, 545.561, 243.86)"/>
<path fill="none" stroke-width="0.43834" stroke-linecap="square" stroke-linejoin="miter" stroke="rgb(0%, 0%, 0%)" stroke-opacity="1" stroke-miterlimit="10" d="M -425.002406 -64.460312 L 0.0015 -64.460312 " transform="matrix(1, 0, 0, -1, 545.561, 243.86)"/>
<path fill="none" stroke-width="0.43834" stroke-linecap="square" stroke-linejoin="miter" stroke="rgb(0%, 0%, 0%)" stroke-opacity="1" stroke-miterlimit="10" d="M -425.002406 -86.776719 L 0.0015 -86.776719 " transform="matrix(1, 0, 0, -1, 545.561, 243.86)"/>
<path fill="none" stroke-width="0.43834" stroke-linecap="square" stroke-linejoin="miter" stroke="rgb(0%, 0%, 0%)" stroke-opacity="1" stroke-miterlimit="10" d="M -425.002406 -109.093125 L 0.0015 -109.093125 " transform="matrix(1, 0, 0, -1, 545.561, 243.86)"/>
<path fill="none" stroke-width="0.43834" stroke-linecap="square" stroke-linejoin="miter" stroke="rgb(0%, 0%, 0%)" stroke-opacity="1" stroke-miterlimit="10" d="M -425.002406 114.074844 L -425.002406 -109.093125 " transform="matrix(1, 0, 0, -1, 545.561, 243.86)"/>
<path fill="none" stroke-width="0.43834" stroke-linecap="square" stroke-linejoin="miter" stroke="rgb(0%, 0%, 0%)" stroke-opacity="1" stroke-miterlimit="10" d="M -397.443812 114.074844 L -397.443812 -109.093125 " transform="matrix(1, 0, 0, -1, 545.561, 243.86)"/>
<path fill="none" stroke-width="0.43834" stroke-linecap="square" stroke-linejoin="miter" stroke="rgb(0%, 0%, 0%)" stroke-opacity="1" stroke-miterlimit="10" d="M -369.885219 -19.8275 L -369.885219 -109.093125 " transform="matrix(1, 0, 0, -1, 545.561, 243.86)"/>
<path fill="none" stroke-width="0.43834" stroke-linecap="square" stroke-linejoin="miter" stroke="rgb(0%, 0%, 0%)" stroke-opacity="1" stroke-miterlimit="10" d="M -342.322719 -19.8275 L -342.322719 -109.093125 " transform="matrix(1, 0, 0, -1, 545.561, 243.86)"/>
<path fill="none" stroke-width="0.43834" stroke-linecap="square" stroke-linejoin="miter" stroke="rgb(0%, 0%, 0%)" stroke-opacity="1" stroke-miterlimit="10" d="M -314.764125 2.488906 L -314.764125 -109.093125 " transform="matrix(1, 0, 0, -1, 545.561, 243.86)"/>
<path fill="none" stroke-width="0.43834" stroke-linecap="square" stroke-linejoin="miter" stroke="rgb(0%, 0%, 0%)" stroke-opacity="1" stroke-miterlimit="10" d="M -287.205531 -19.8275 L -287.205531 -109.093125 " transform="matrix(1, 0, 0, -1, 545.561, 243.86)"/>
<path fill="none" stroke-width="0.43834" stroke-linecap="square" stroke-linejoin="miter" stroke="rgb(0%, 0%, 0%)" stroke-opacity="1" stroke-miterlimit="10" d="M -259.643031 2.488906 L -259.643031 -109.093125 " transform="matrix(1, 0, 0, -1, 545.561, 243.86)"/>
<path fill="none" stroke-width="0.43834" stroke-linecap="square" stroke-linejoin="miter" stroke="rgb(0%, 0%, 0%)" stroke-opacity="1" stroke-miterlimit="10" d="M -232.084437 -19.8275 L -232.084437 -109.093125 " transform="matrix(1, 0, 0, -1, 545.561, 243.86)"/>
<path fill="none" stroke-width="0.43834" stroke-linecap="square" stroke-linejoin="miter" stroke="rgb(0%, 0%, 0%)" stroke-opacity="1" stroke-miterlimit="10" d="M -204.525844 -19.8275 L -204.525844 -109.093125 " transform="matrix(1, 0, 0, -1, 545.561, 243.86)"/>
<path fill="none" stroke-width="0.43834" stroke-linecap="square" stroke-linejoin="miter" stroke="rgb(0%, 0%, 0%)" stroke-opacity="1" stroke-miterlimit="10" d="M -176.96725 2.488906 L -176.96725 -109.093125 " transform="matrix(1, 0, 0, -1, 545.561, 243.86)"/>
<path fill="none" stroke-width="0.43834" stroke-linecap="square" stroke-linejoin="miter" stroke="rgb(0%, 0%, 0%)" stroke-opacity="1" stroke-miterlimit="10" d="M -149.40475 -19.8275 L -149.40475 -109.093125 " transform="matrix(1, 0, 0, -1, 545.561, 243.86)"/>
<path fill="none" stroke-width="0.43834" stroke-linecap="square" stroke-linejoin="miter" stroke="rgb(0%, 0%, 0%)" stroke-opacity="1" stroke-miterlimit="10" d="M 0.0015 114.074844 L 0.0015 -109.093125 " transform="matrix(1, 0, 0, -1, 545.561, 243.86)"/>
<path fill="none" stroke-width="0.3985" stroke-linecap="butt" stroke-linejoin="miter" stroke="rgb(0%, 0%, 0%)" stroke-opacity="1" stroke-dasharray="2.98883 2.98883" stroke-miterlimit="10" d="M 151.361688 -872.253906 L 151.361688 -113.773438 " transform="matrix(1, 0, 0, -1, -68.682, -72)"/>
<path fill="none" stroke-width="0.3985" stroke-linecap="butt" stroke-linejoin="miter" stroke="rgb(0%, 0%, 0%)" stroke-opacity="1" stroke-dasharray="2.98883 2.98883" stroke-miterlimit="10" d="M 97.728875 -872.253906 L 97.728875 -113.773438 " transform="matrix(1, 0, 0, -1, -68.682, -72)"/>
<path fill-rule="nonzero" fill="rgb(75%, 75%, 75%)" fill-opacity="1" d="M 52.886719 754.128906 L 52.886719 719.960938 C 52.886719 717.761719 54.667969 715.976562 56.871094 715.976562 L 57.839844 715.976562 C 60.039062 715.976562 61.824219 717.761719 61.824219 719.960938 L 61.824219 754.128906 C 61.824219 756.332031 60.039062 758.117188 57.839844 758.117188 L 56.871094 758.117188 C 54.667969 758.117188 52.886719 756.332031 52.886719 754.128906 Z M 52.886719 754.128906 "/>
<path fill="none" stroke-width="0.3985" stroke-linecap="butt" stroke-linejoin="miter" stroke="rgb(50%, 50%, 50%)" stroke-opacity="1" stroke-miterlimit="10" d="M 130.506219 -779.550781 L 130.506219 -712.128906 " transform="matrix(1, 0, 0, -1, -68.682, -72)"/>
<path fill-rule="nonzero" fill="rgb(75%, 75%, 75%)" fill-opacity="1" d="M 52.886719 602.433594 L 52.886719 568.265625 C 52.886719 566.066406 54.667969 564.28125 56.871094 564.28125 L 57.839844 564.28125 C 60.039062 564.28125 61.824219 566.066406 61.824219 568.265625 L 61.824219 602.433594 C 61.824219 604.636719 60.039062 606.417969 57.839844 606.417969 L 56.871094 606.417969 C 54.667969 606.417969 52.886719 604.636719 52.886719 602.433594 Z M 52.886719 602.433594 "/>
<path fill="none" stroke-width="0.3985" stroke-linecap="butt" stroke-linejoin="miter" stroke="rgb(50%, 50%, 50%)" stroke-opacity="1" stroke-miterlimit="10" d="M 130.506219 -627.855469 L 130.506219 -560.433594 " transform="matrix(1, 0, 0, -1, -68.682, -72)"/>
<path fill-rule="nonzero" fill="rgb(75%, 75%, 75%)" fill-opacity="1" d="M 52.886719 450.738281 L 52.886719 416.570312 C 52.886719 414.371094 54.667969 412.585938 56.871094 412.585938 L 57.839844 412.585938 C 60.039062 412.585938 61.824219 414.371094 61.824219 416.570312 L 61.824219 450.738281 C 61.824219 452.9375 60.039062 454.722656 57.839844 454.722656 L 56.871094 454.722656 C 54.667969 454.722656 52.886719 452.9375 52.886719 450.738281 Z M 52.886719 450.738281 "/>
<path fill="none" stroke-width="0.3985" stroke-linecap="butt" stroke-linejoin="miter" stroke="rgb(50%, 50%, 50%)" stroke-opacity="1" stroke-miterlimit="10" d="M 130.506219 -476.15625 L 130.506219 -408.738281 " transform="matrix(1, 0, 0, -1, -68.682, -72)"/>
<path fill-rule="nonzero" fill="rgb(75%, 75%, 75%)" fill-opacity="1" d="M 52.886719 299.042969 L 52.886719 264.875 C 52.886719 262.671875 54.667969 260.890625 56.871094 260.890625 L 57.839844 260.890625 C 60.039062 260.890625 61.824219 262.671875 61.824219 264.875 L 61.824219 299.042969 C 61.824219 301.242188 60.039062 303.027344 57.839844 303.027344 L 56.871094 303.027344 C 54.667969 303.027344 52.886719 301.242188 52.886719 299.042969 Z M 52.886719 299.042969 "/>
<path fill="none" stroke-width="0.3985" stroke-linecap="butt" stroke-linejoin="miter" stroke="rgb(50%, 50%, 50%)" stroke-opacity="1" stroke-miterlimit="10" d="M 130.506219 -324.460938 L 130.506219 -257.039062 " transform="matrix(1, 0, 0, -1, -68.682, -72)"/>
<path fill-rule="nonzero" fill="rgb(75%, 75%, 75%)" fill-opacity="1" d="M 52.886719 147.34375 L 52.886719 113.179688 C 52.886719 110.976562 54.667969 109.191406 56.871094 109.191406 L 57.839844 109.191406 C 60.039062 109.191406 61.824219 110.976562 61.824219 113.179688 L 61.824219 147.34375 C 61.824219 149.546875 60.039062 151.332031 57.839844 151.332031 L 56.871094 151.332031 C 54.667969 151.332031 52.886719 149.546875 52.886719 147.34375 Z M 52.886719 147.34375 "/>
<path fill="none" stroke-width="0.3985" stroke-linecap="butt" stroke-linejoin="miter" stroke="rgb(50%, 50%, 50%)" stroke-opacity="1" stroke-miterlimit="10" d="M 130.506219 -172.765625 L 130.506219 -105.34375 " transform="matrix(1, 0, 0, -1, -68.682, -72)"/>
<path fill-rule="nonzero" fill="rgb(75%, 75%, 75%)" fill-opacity="1" d="M 130.355469 223.195312 L 130.355469 146.886719 C 130.355469 144.6875 132.136719 142.902344 134.339844 142.902344 L 135.308594 142.902344 C 137.507812 142.902344 139.292969 144.6875 139.292969 146.886719 L 139.292969 223.195312 C 139.292969 225.394531 137.507812 227.179688 135.308594 227.179688 L 134.339844 227.179688 C 132.136719 227.179688 130.355469 225.394531 130.355469 223.195312 Z M 130.355469 223.195312 "/>
<path fill-rule="nonzero" fill="rgb(75%, 75%, 75%)" fill-opacity="1" d="M 124.394531 255.21875 L 124.394531 250.546875 C 124.394531 248.347656 126.179688 246.5625 128.378906 246.5625 L 139.480469 246.5625 C 141.679688 246.5625 143.464844 248.347656 143.464844 250.546875 L 143.464844 255.21875 C 143.464844 257.417969 141.679688 259.203125 139.480469 259.203125 L 128.378906 259.203125 C 126.179688 259.203125 124.394531 257.417969 124.394531 255.21875 Z M 124.394531 255.21875 "/>
<path fill-rule="nonzero" fill="rgb(75%, 75%, 75%)" fill-opacity="1" d="M 124.394531 277.128906 L 124.394531 272.457031 C 124.394531 270.257812 126.179688 268.472656 128.378906 268.472656 L 139.480469 268.472656 C 141.679688 268.472656 143.464844 270.257812 143.464844 272.457031 L 143.464844 277.128906 C 143.464844 279.332031 141.679688 281.113281 139.480469 281.113281 L 128.378906 281.113281 C 126.179688 281.113281 124.394531 279.332031 124.394531 277.128906 Z M 124.394531 277.128906 "/>
<path fill-rule="nonzero" fill="rgb(75%, 75%, 75%)" fill-opacity="1" d="M 124.394531 299.042969 L 124.394531 294.371094 C 124.394531 292.167969 126.179688 290.386719 128.378906 290.386719 L 139.480469 290.386719 C 141.679688 290.386719 143.464844 292.167969 143.464844 294.371094 L 143.464844 299.042969 C 143.464844 301.242188 141.679688 303.027344 139.480469 303.027344 L 128.378906 303.027344 C 126.179688 303.027344 124.394531 301.242188 124.394531 299.042969 Z M 124.394531 299.042969 "/>
<path fill-rule="nonzero" fill="rgb(75%, 75%, 75%)" fill-opacity="1" d="M 124.394531 320.953125 L 124.394531 316.28125 C 124.394531 314.082031 126.179688 312.296875 128.378906 312.296875 L 139.480469 312.296875 C 141.679688 312.296875 143.464844 314.082031 143.464844 316.28125 L 143.464844 320.953125 C 143.464844 323.152344 141.679688 324.9375 139.480469 324.9375 L 128.378906 324.9375 C 126.179688 324.9375 124.394531 323.152344 124.394531 320.953125 Z M 124.394531 320.953125 "/>
<path fill-rule="nonzero" fill="rgb(75%, 75%, 75%)" fill-opacity="1" d="M 124.394531 343.707031 L 124.394531 339.035156 C 124.394531 336.835938 126.179688 335.050781 128.378906 335.050781 L 139.480469 335.050781 C 141.679688 335.050781 143.464844 336.835938 143.464844 339.035156 L 143.464844 343.707031 C 143.464844 345.910156 141.679688 347.691406 139.480469 347.691406 L 128.378906 347.691406 C 126.179688 347.691406 124.394531 345.910156 124.394531 343.707031 Z M 124.394531 343.707031 "/>
<path fill-rule="nonzero" fill="rgb(75%, 75%, 75%)" fill-opacity="1" d="M 160.148438 255.21875 L 160.148438 250.546875 C 160.148438 248.347656 161.933594 246.5625 164.136719 246.5625 L 215.757812 246.5625 C 217.957031 246.5625 219.742188 248.347656 219.742188 250.546875 L 219.742188 255.21875 C 219.742188 257.417969 217.957031 259.203125 215.757812 259.203125 L 164.136719 259.203125 C 161.933594 259.203125 160.148438 257.417969 160.148438 255.21875 Z M 160.148438 255.21875 "/>
<path fill-rule="nonzero" fill="rgb(75%, 75%, 75%)" fill-opacity="1" d="M 237.617188 255.21875 L 237.617188 250.546875 C 237.617188 248.347656 239.402344 246.5625 241.605469 246.5625 L 275.347656 246.5625 C 277.546875 246.5625 279.332031 248.347656 279.332031 250.546875 L 279.332031 255.21875 C 279.332031 257.417969 277.546875 259.203125 275.347656 259.203125 L 241.605469 259.203125 C 239.402344 259.203125 237.617188 257.417969 237.617188 255.21875 Z M 237.617188 255.21875 "/>
<path fill-rule="nonzero" fill="rgb(75%, 75%, 75%)" fill-opacity="1" d="M 297.210938 255.21875 L 297.210938 250.546875 C 297.210938 248.347656 298.996094 246.5625 301.195312 246.5625 L 352.816406 246.5625 C 355.019531 246.5625 356.800781 248.347656 356.800781 250.546875 L 356.800781 255.21875 C 356.800781 257.417969 355.019531 259.203125 352.816406 259.203125 L 301.195312 259.203125 C 298.996094 259.203125 297.210938 257.417969 297.210938 255.21875 Z M 297.210938 255.21875 "/>
<path fill-rule="nonzero" fill="rgb(75%, 75%, 75%)" fill-opacity="1" d="M 404.476562 255.21875 L 404.476562 250.546875 C 404.476562 248.347656 406.257812 246.5625 408.460938 246.5625 L 495.835938 246.5625 C 498.039062 246.5625 499.820312 248.347656 499.820312 250.546875 L 499.820312 255.21875 C 499.820312 257.417969 498.039062 259.203125 495.835938 259.203125 L 408.460938 259.203125 C 406.257812 259.203125 404.476562 257.417969 404.476562 255.21875 Z M 404.476562 255.21875 "/>
<path fill-rule="nonzero" fill="rgb(75%, 75%, 75%)" fill-opacity="1" d="M 151.210938 277.128906 L 151.210938 272.457031 C 151.210938 270.257812 152.996094 268.472656 155.195312 268.472656 L 166.296875 268.472656 C 168.496094 268.472656 170.28125 270.257812 170.28125 272.457031 L 170.28125 277.128906 C 170.28125 279.332031 168.496094 281.113281 166.296875 281.113281 L 155.195312 281.113281 C 152.996094 281.113281 151.210938 279.332031 151.210938 277.128906 Z M 151.210938 277.128906 "/>
<path fill-rule="nonzero" fill="rgb(75%, 75%, 75%)" fill-opacity="1" d="M 180.410156 277.128906 L 180.410156 272.457031 C 180.410156 270.257812 182.195312 268.472656 184.394531 268.472656 L 195.496094 268.472656 C 197.695312 268.472656 199.480469 270.257812 199.480469 272.457031 L 199.480469 277.128906 C 199.480469 279.332031 197.695312 281.113281 195.496094 281.113281 L 184.394531 281.113281 C 182.195312 281.113281 180.410156 279.332031 180.410156 277.128906 Z M 180.410156 277.128906 "/>
<path fill-rule="nonzero" fill="rgb(75%, 75%, 75%)" fill-opacity="1" d="M 207.824219 277.128906 L 207.824219 272.457031 C 207.824219 270.257812 209.605469 268.472656 211.808594 268.472656 L 222.90625 268.472656 C 225.109375 268.472656 226.890625 270.257812 226.890625 272.457031 L 226.890625 277.128906 C 226.890625 279.332031 225.109375 281.113281 222.90625 281.113281 L 211.808594 281.113281 C 209.605469 281.113281 207.824219 279.332031 207.824219 277.128906 Z M 207.824219 277.128906 "/>
<path fill-rule="nonzero" fill="rgb(75%, 75%, 75%)" fill-opacity="1" d="M 235.234375 277.128906 L 235.234375 272.457031 C 235.234375 270.257812 237.019531 268.472656 239.21875 268.472656 L 250.320312 268.472656 C 252.519531 268.472656 254.304688 270.257812 254.304688 272.457031 L 254.304688 277.128906 C 254.304688 279.332031 252.519531 281.113281 250.320312 281.113281 L 239.21875 281.113281 C 237.019531 281.113281 235.234375 279.332031 235.234375 277.128906 Z M 235.234375 277.128906 "/>
<path fill-rule="nonzero" fill="rgb(75%, 75%, 75%)" fill-opacity="1" d="M 262.648438 277.128906 L 262.648438 272.457031 C 262.648438 270.257812 264.429688 268.472656 266.632812 268.472656 L 277.730469 268.472656 C 279.933594 268.472656 281.714844 270.257812 281.714844 272.457031 L 281.714844 277.128906 C 281.714844 279.332031 279.933594 281.113281 277.730469 281.113281 L 266.632812 281.113281 C 264.429688 281.113281 262.648438 279.332031 262.648438 277.128906 Z M 262.648438 277.128906 "/>
<path fill-rule="nonzero" fill="rgb(75%, 75%, 75%)" fill-opacity="1" d="M 290.65625 277.128906 L 290.65625 272.457031 C 290.65625 270.257812 292.441406 268.472656 294.640625 268.472656 L 305.738281 268.472656 C 307.941406 268.472656 309.722656 270.257812 309.722656 272.457031 L 309.722656 277.128906 C 309.722656 279.332031 307.941406 281.113281 305.738281 281.113281 L 294.640625 281.113281 C 292.441406 281.113281 290.65625 279.332031 290.65625 277.128906 Z M 290.65625 277.128906 "/>
<path fill-rule="nonzero" fill="rgb(75%, 75%, 75%)" fill-opacity="1" d="M 318.066406 277.128906 L 318.066406 272.457031 C 318.066406 270.257812 319.851562 268.472656 322.050781 268.472656 L 333.152344 268.472656 C 335.351562 268.472656 337.136719 270.257812 337.136719 272.457031 L 337.136719 277.128906 C 337.136719 279.332031 335.351562 281.113281 333.152344 281.113281 L 322.050781 281.113281 C 319.851562 281.113281 318.066406 279.332031 318.066406 277.128906 Z M 318.066406 277.128906 "/>
<path fill-rule="nonzero" fill="rgb(75%, 75%, 75%)" fill-opacity="1" d="M 345.480469 277.128906 L 345.480469 272.457031 C 345.480469 270.257812 347.265625 268.472656 349.464844 268.472656 L 360.5625 268.472656 C 362.765625 268.472656 364.550781 270.257812 364.550781 272.457031 L 364.550781 277.128906 C 364.550781 279.332031 362.765625 281.113281 360.5625 281.113281 L 349.464844 281.113281 C 347.265625 281.113281 345.480469 279.332031 345.480469 277.128906 Z M 345.480469 277.128906 "/>
<path fill-rule="nonzero" fill="rgb(75%, 75%, 75%)" fill-opacity="1" d="M 373.488281 277.128906 L 373.488281 272.457031 C 373.488281 270.257812 375.273438 268.472656 377.472656 268.472656 L 388.570312 268.472656 C 390.773438 268.472656 392.558594 270.257812 392.558594 272.457031 L 392.558594 277.128906 C 392.558594 279.332031 390.773438 281.113281 388.570312 281.113281 L 377.472656 281.113281 C 375.273438 281.113281 373.488281 279.332031 373.488281 277.128906 Z M 373.488281 277.128906 "/>
<path fill-rule="nonzero" fill="rgb(75%, 75%, 75%)" fill-opacity="1" d="M 160.148438 147.34375 L 160.148438 142.675781 C 160.148438 140.472656 161.933594 138.6875 164.136719 138.6875 L 525.632812 138.6875 C 527.832031 138.6875 529.617188 140.472656 529.617188 142.675781 L 529.617188 147.34375 C 529.617188 149.546875 527.832031 151.332031 525.632812 151.332031 L 164.136719 151.332031 C 161.933594 151.332031 160.148438 149.546875 160.148438 147.34375 Z M 160.148438 147.34375 "/>
<path fill-rule="nonzero" fill="rgb(75%, 75%, 75%)" fill-opacity="1" d="M 160.148438 168.414062 L 160.148438 163.742188 C 160.148438 161.542969 161.933594 159.757812 164.136719 159.757812 L 275.347656 159.757812 C 277.546875 159.757812 279.332031 161.542969 279.332031 163.742188 L 279.332031 168.414062 C 279.332031 170.617188 277.546875 172.398438 275.347656 172.398438 L 164.136719 172.398438 C 161.933594 172.398438 160.148438 170.617188 160.148438 168.414062 Z M 160.148438 168.414062 "/>
<path fill-rule="nonzero" fill="rgb(75%, 75%, 75%)" fill-opacity="1" d="M 160.148438 189.484375 L 160.148438 184.8125 C 160.148438 182.609375 161.933594 180.828125 164.136719 180.828125 L 424.328125 180.828125 C 426.527344 180.828125 428.3125 182.609375 428.3125 184.8125 L 428.3125 189.484375 C 428.3125 191.683594 426.527344 193.46875 424.328125 193.46875 L 164.136719 193.46875 C 161.933594 193.46875 160.148438 191.683594 160.148438 189.484375 Z M 160.148438 189.484375 "/>
<path fill-rule="nonzero" fill="rgb(75%, 75%, 75%)" fill-opacity="1" d="M 160.148438 210.550781 L 160.148438 205.882812 C 160.148438 203.679688 161.933594 201.894531 164.136719 201.894531 L 388.570312 201.894531 C 390.773438 201.894531 392.558594 203.679688 392.558594 205.882812 L 392.558594 210.550781 C 392.558594 212.753906 390.773438 214.539062 388.570312 214.539062 L 164.136719 214.539062 C 161.933594 214.539062 160.148438 212.753906 160.148438 210.550781 Z M 160.148438 210.550781 "/>
<path fill-rule="nonzero" fill="rgb(75%, 75%, 75%)" fill-opacity="1" d="M 160.148438 231.621094 L 160.148438 226.949219 C 160.148438 224.75 161.933594 222.964844 164.136719 222.964844 L 317.0625 222.964844 C 319.261719 222.964844 321.046875 224.75 321.046875 226.949219 L 321.046875 231.621094 C 321.046875 233.820312 319.261719 235.605469 317.0625 235.605469 L 164.136719 235.605469 C 161.933594 235.605469 160.148438 233.820312 160.148438 231.621094 Z M 160.148438 231.621094 "/>
<path fill-rule="nonzero" fill="rgb(62.5%, 62.5%, 62.5%)" fill-opacity="1" d="M 124.394531 390.058594 L 124.394531 382.859375 C 124.394531 380.660156 126.179688 378.875 128.378906 378.875 L 209.796875 378.875 C 211.996094 378.875 213.78125 380.660156 213.78125 382.859375 L 213.78125 390.058594 C 213.78125 392.261719 211.996094 394.042969 209.796875 394.042969 L 128.378906 394.042969 C 126.179688 394.042969 124.394531 392.261719 124.394531 390.058594 Z M 124.394531 390.058594 "/>
<path fill-rule="nonzero" fill="rgb(75%, 75%, 75%)" fill-opacity="1" d="M 142.273438 417.027344 L 142.273438 412.355469 C 142.273438 410.15625 144.054688 408.371094 146.257812 408.371094 L 525.632812 408.371094 C 527.832031 408.371094 529.617188 410.15625 529.617188 412.355469 L 529.617188 417.027344 C 529.617188 419.226562 527.832031 421.011719 525.632812 421.011719 L 146.257812 421.011719 C 144.054688 421.011719 142.273438 419.226562 142.273438 417.027344 Z M 142.273438 417.027344 "/>
<path fill-rule="nonzero" fill="rgb(75%, 75%, 75%)" fill-opacity="1" d="M 142.273438 442.308594 L 142.273438 437.640625 C 142.273438 435.4375 144.054688 433.652344 146.257812 433.652344 L 525.632812 433.652344 C 527.832031 433.652344 529.617188 435.4375 529.617188 437.640625 L 529.617188 442.308594 C 529.617188 444.511719 527.832031 446.296875 525.632812 446.296875 L 146.257812 446.296875 C 144.054688 446.296875 142.273438 444.511719 142.273438 442.308594 Z M 142.273438 442.308594 "/>
<path fill-rule="nonzero" fill="rgb(75%, 75%, 75%)" fill-opacity="1" d="M 142.273438 467.59375 L 142.273438 462.921875 C 142.273438 460.722656 144.054688 458.9375 146.257812 458.9375 L 525.632812 458.9375 C 527.832031 458.9375 529.617188 460.722656 529.617188 462.921875 L 529.617188 467.59375 C 529.617188 469.792969 527.832031 471.578125 525.632812 471.578125 L 146.257812 471.578125 C 144.054688 471.578125 142.273438 469.792969 142.273438 467.59375 Z M 142.273438 467.59375 "/>
<path fill-rule="nonzero" fill="rgb(75%, 75%, 75%)" fill-opacity="1" d="M 142.273438 492.875 L 142.273438 488.203125 C 142.273438 486.003906 144.054688 484.21875 146.257812 484.21875 L 239.59375 484.21875 C 241.792969 484.21875 243.578125 486.003906 243.578125 488.203125 L 243.578125 492.875 C 243.578125 495.078125 241.792969 496.859375 239.59375 496.859375 L 146.257812 496.859375 C 144.054688 496.859375 142.273438 495.078125 142.273438 492.875 Z M 142.273438 492.875 "/>
<path fill-rule="nonzero" fill="rgb(75%, 75%, 75%)" fill-opacity="1" d="M 142.273438 594.007812 L 142.273438 589.335938 C 142.273438 587.132812 144.054688 585.351562 146.257812 585.351562 L 525.632812 585.351562 C 527.832031 585.351562 529.617188 587.132812 529.617188 589.335938 L 529.617188 594.007812 C 529.617188 596.207031 527.832031 597.992188 525.632812 597.992188 L 146.257812 597.992188 C 144.054688 597.992188 142.273438 596.207031 142.273438 594.007812 Z M 142.273438 594.007812 "/>
<path fill-rule="nonzero" fill="rgb(75%, 75%, 75%)" fill-opacity="1" d="M 142.273438 619.289062 L 142.273438 614.617188 C 142.273438 612.417969 144.054688 610.632812 146.257812 610.632812 L 525.632812 610.632812 C 527.832031 610.632812 529.617188 612.417969 529.617188 614.617188 L 529.617188 619.289062 C 529.617188 621.488281 527.832031 623.273438 525.632812 623.273438 L 146.257812 623.273438 C 144.054688 623.273438 142.273438 621.488281 142.273438 619.289062 Z M 142.273438 619.289062 "/>
<path fill-rule="nonzero" fill="rgb(75%, 75%, 75%)" fill-opacity="1" d="M 142.273438 644.570312 L 142.273438 639.902344 C 142.273438 637.699219 144.054688 635.914062 146.257812 635.914062 L 334.9375 635.914062 C 337.140625 635.914062 338.925781 637.699219 338.925781 639.902344 L 338.925781 644.570312 C 338.925781 646.773438 337.140625 648.558594 334.9375 648.558594 L 146.257812 648.558594 C 144.054688 648.558594 142.273438 646.773438 142.273438 644.570312 Z M 142.273438 644.570312 "/>
</svg>
